<svg xmlns="http://www.w3.org/2000/svg" viewBox="0 0 24 24" role="img" aria-labelledby="title">
  <title>Discord</title>
  <rect width="24" height="24" rx="5" fill="#5865F2"/>
  <path fill="#fff" d="M19.54 5.34A17.1 17.1 0 0 0 15.31 4l-.52 1.06a15.7 15.7 0 0 0-5.58 0L8.69 4a17.2 17.2 0 0 0-4.24 1.35C1.77 9.31 1.05 13.18 1.41 17a17.3 17.3 0 0 0 5.19 2.62l1.25-1.71a10.9 10.9 0 0 1-1.97-.94l.48-.37c3.79 1.75 7.9 1.75 11.64 0l.49.37c-.63.37-1.29.69-1.98.94l1.25 1.71A17.2 17.2 0 0 0 22.95 17c.43-4.44-.73-8.27-3.41-11.66ZM8.52 14.66c-1.14 0-2.08-1.05-2.08-2.34s.92-2.34 2.08-2.34c1.17 0 2.1 1.06 2.08 2.34 0 1.29-.92 2.34-2.08 2.34Zm6.96 0c-1.14 0-2.08-1.05-2.08-2.34s.92-2.34 2.08-2.34c1.17 0 2.1 1.06 2.08 2.34 0 1.29-.91 2.34-2.08 2.34Z"/>
</svg>
