<svg xmlns="http://www.w3.org/2000/svg" viewBox="0 0 64 64"><defs><linearGradient id="g" x1="0" y1="0" x2="1" y2="1"><stop stop-color="#00b8ff"/><stop offset="1" stop-color="#003bba"/></linearGradient></defs><rect width="64" height="64" rx="16" fill="#05070d"/><path fill="url(#g)" d="M24 49h-9l7-34h15c7 0 12 4 11 11-1 8-7 13-16 13h-5l-3 10Zm5-18h5c4 0 6-2 7-5 .5-3-2-4-5-4h-6l-1 9Z"/><path fill="#22c7ff" opacity=".9" d="M31 49h-9l6-29h14c6 0 10 3 9 9-1 8-7 12-15 12h-3l-2 8Zm4-15h3c4 0 6-2 6-5 .4-2-1-3-4-3h-3l-2 8Z"/></svg>