<svg xmlns="http://www.w3.org/2000/svg" viewBox="0 0 64 64"><rect width="64" height="64" rx="16" fill="#030303"/><path d="M38 13c1 7 5 11 12 12v8c-4 0-8-1-12-4v13c0 9-6 15-15 15S8 51 8 43s6-14 15-14c1 0 3 0 4 .4v9a8 8 0 0 0-4-1c-3 0-6 2-6 6s3 6 6 6 6-2 6-7V13h9Z" fill="#25F4EE"/><path d="M41 13c1 6 5 9 11 10v7c-4 0-8-1-11-3v13c0 9-6 15-15 15-5 0-10-3-13-7 3 2 6 3 10 3 9 0 15-6 15-15V13h3Z" fill="#FE2C55"/><path d="M35 13c1 7 5 11 12 12v6c-4 0-8-1-12-4v14c0 8-5 13-13 13S9 49 9 42s6-13 13-13c1 0 2 0 3 .3v7c-1-.5-2-.7-3-.7-4 0-7 3-7 7s3 7 7 7 7-3 7-8V13h6Z" fill="#fff"/></svg>